<?xml version="1.0" standalone="no"?>
<!DOCTYPE svg PUBLIC "-//W3C//DTD SVG 20010904//EN"
 "http://www.w3.org/TR/2001/REC-SVG-20010904/DTD/svg10.dtd">
<svg version="1.0" xmlns="http://www.w3.org/2000/svg"
 width="485.000000pt" height="313.000000pt" viewBox="0 0 485.000000 313.000000"
 preserveAspectRatio="xMidYMid meet">

<g transform="translate(0.000000,313.000000) scale(0.100000,-0.100000)"
fill="#ff5e3a" stroke="none">
<path d="M340 1580 l0 -1150 2040 0 2040 0 0 1150 0 1150 -2040 0 -2040 0 0
-1150z m3980 630 l0 -420 -730 0 -730 0 0 -50 0 -50 730 0 730 0 0 -580 0
-580 -1940 0 -1940 0 0 580 0 580 730 0 730 0 0 50 0 50 -730 0 -730 0 0 420
0 420 1940 0 1940 0 0 -420z"/>
<path d="M2148 2288 c-9 -7 -18 -22 -20 -33 -2 -15 -12 -21 -38 -23 -51 -5
-60 -17 -60 -78 0 -50 -2 -54 -23 -54 -34 0 -47 -19 -47 -68 0 -56 14 -82 45
-82 24 0 25 -3 25 -55 0 -61 13 -75 69 -75 23 0 31 -5 31 -18 0 -31 22 -42 80
-42 31 0 61 5 68 12 7 7 12 44 12 95 l0 83 90 0 90 0 0 -83 c0 -51 5 -88 12
-95 16 -16 120 -16 136 0 7 7 12 20 12 30 0 14 8 18 34 18 48 0 66 22 66 81 0
45 2 49 25 49 31 0 45 26 45 82 0 49 -13 68 -47 68 -21 0 -23 4 -23 54 0 61
-9 73 -60 78 -26 2 -36 8 -38 23 -6 31 -31 45 -81 45 -70 0 -75 -7 -81 -107
l-5 -88 -85 0 -85 0 -5 88 c-4 63 -9 90 -20 97 -22 14 -103 12 -122 -2z m92
-263 l0 -215 -30 0 -30 0 0 215 0 215 30 0 30 0 0 -215z m340 -1 l0 -215 -27
3 -28 3 -3 213 -2 212 30 0 30 0 0 -216z m-450 6 l0 -150 -25 0 -25 0 0 143
c0 79 3 147 7 150 3 4 15 7 25 7 17 0 18 -11 18 -150z m548 -2 l3 -148 -26 0
-25 0 0 151 c0 150 0 150 23 147 22 -3 22 -6 25 -150z m-651 -10 c-3 -7 -5 -2
-5 12 0 14 2 19 5 13 2 -7 2 -19 0 -25z m443 12 c0 -19 -7 -20 -90 -20 -83 0
-90 1 -90 20 0 19 7 20 90 20 83 0 90 -1 90 -20z m267 -12 c-3 -7 -5 -2 -5 12
0 14 2 19 5 13 2 -7 2 -19 0 -25z"/>
<path d="M880 1135 l0 -175 45 0 45 0 0 83 0 82 41 -67 c54 -92 73 -92 126 -2
l38 66 3 -81 3 -81 44 0 45 0 0 176 0 175 -42 -3 c-42 -3 -43 -4 -97 -96 l-55
-93 -30 50 c-17 28 -43 71 -58 96 -25 41 -31 45 -68 45 l-40 0 0 -175z"/>
<path d="M1804 1285 c-51 -30 -78 -82 -78 -150 0 -69 27 -120 80 -151 39 -23
53 -26 122 -23 53 3 87 10 105 22 25 16 27 22 27 92 l0 75 -44 0 -45 0 -3 -52
-3 -53 -41 -3 c-33 -2 -48 2 -70 22 -24 20 -29 32 -29 71 0 39 5 51 28 71 34
29 82 31 126 7 30 -18 31 -18 57 9 32 32 27 49 -19 71 -56 27 -162 23 -213 -8z"/>
<path d="M3020 1135 l0 -175 130 0 130 0 0 40 0 40 -85 0 -85 0 0 135 0 135
-45 0 -45 0 0 -175z"/>
<path d="M1290 1228 c0 -8 23 -66 50 -130 28 -64 50 -121 50 -127 0 -11 -5
-13 -55 -15 -23 -1 -32 -7 -39 -29 -9 -24 -7 -31 9 -43 22 -17 85 -18 118 -3
13 6 31 23 39 37 24 40 128 291 128 308 0 10 -12 14 -42 14 l-43 0 -31 -76
-30 -76 -31 73 -31 74 -46 3 c-34 2 -46 -1 -46 -10z"/>
<path d="M2070 1228 c0 -8 23 -66 50 -130 28 -64 50 -121 50 -127 0 -11 -5
-13 -55 -15 -23 -1 -32 -7 -39 -29 -9 -24 -7 -31 9 -43 22 -17 85 -18 118 -3
13 6 31 23 39 37 24 40 128 291 128 308 0 10 -12 14 -42 14 l-43 0 -31 -76
-30 -76 -31 73 -31 74 -46 3 c-34 2 -46 -1 -46 -10z"/>
<path d="M2380 1100 l0 -140 50 0 50 0 0 84 c0 85 12 116 44 116 28 0 36 -26
36 -112 l0 -88 44 0 44 0 3 86 c3 71 7 88 23 100 25 18 31 18 50 -2 12 -12 16
-36 16 -100 l0 -84 45 0 45 0 0 99 c0 55 -4 111 -10 125 -18 50 -110 72 -168
42 -24 -12 -30 -12 -47 0 -22 16 -88 19 -116 4 -13 -7 -19 -7 -19 0 0 5 -20
10 -45 10 l-45 0 0 -140z"/>
<path d="M3354 1226 c-52 -23 -74 -61 -74 -127 0 -47 5 -63 25 -88 64 -75 208
-64 253 20 19 35 11 133 -14 160 -41 46 -127 62 -190 35z m106 -86 c11 -11 20
-29 20 -40 0 -23 -33 -60 -55 -60 -22 0 -55 37 -55 60 0 23 33 60 55 60 8 0
24 -9 35 -20z"/>
<path d="M3654 1226 c-47 -21 -64 -52 -64 -117 0 -93 52 -136 152 -127 l52 5
-24 -19 c-19 -15 -33 -18 -60 -13 -19 4 -47 9 -61 12 -22 4 -28 0 -39 -27 -11
-27 -11 -33 1 -41 47 -30 149 -37 204 -15 55 23 65 55 65 216 l0 140 -40 0
c-22 0 -40 -5 -40 -10 0 -7 -6 -7 -19 0 -27 14 -90 12 -127 -4z m118 -83 c10
-9 18 -23 18 -31 0 -21 -30 -52 -49 -52 -26 0 -61 29 -61 50 0 20 35 50 59 50
8 0 23 -7 33 -17z"/>
</g>
</svg>
